<svg width="1100" height="490" viewBox="0 0 1100 490" fill="none" xmlns="http://www.w3.org/2000/svg">
<path d="M227.876 368.087L221.506 383.278C208.764 389.704 196.295 394.332 184.098 397.163C171.901 400.104 158.615 401.574 144.24 401.574C127.36 401.574 111.678 399.45 97.1946 395.203C82.7107 390.956 70.0237 384.912 59.1335 377.071C48.3523 369.121 39.5312 360.246 32.6705 350.445C25.8097 340.643 20.5824 330.026 16.9886 318.591C13.3949 307.047 11.598 294.415 11.598 280.693C11.598 245.954 23.6861 217.204 47.8622 194.443C72.1473 171.574 105.253 160.139 147.18 160.139C157.09 160.139 166.238 160.738 174.624 161.936C183.118 163.025 193.409 165.203 205.497 168.47C217.694 171.628 225.154 173.48 227.876 174.024C225.481 180.014 223.684 185.894 222.486 191.666C220.743 200.923 219.545 211.65 218.892 223.847H208.601L208.437 204.571C207.348 193.899 201.413 185.949 190.632 180.722C179.96 175.494 164.278 172.881 143.587 172.881C128.123 173.098 115 175.113 104.219 178.925C93.4375 182.627 83.9086 188.563 75.6321 196.73C67.4645 204.789 60.767 215.08 55.5398 227.604C50.3125 240.018 47.6444 255.646 47.5355 274.486C47.5355 307.483 57.6089 334.055 77.7557 354.202C97.9025 374.24 124.529 384.259 157.635 384.259C172.554 384.259 186.385 382.189 199.126 378.051C207.839 375.22 216.496 370.755 225.099 364.656L227.876 368.087ZM272.635 285.104L263.977 282.817C264.086 280.312 264.141 276.882 264.141 272.526C264.141 267.952 264.086 264.304 263.977 261.581C277.808 252.542 289.134 246.444 297.955 243.286C304.706 240.999 312.275 239.855 320.66 239.855C333.075 239.855 343.53 242.197 352.024 246.879C360.518 251.562 366.835 258.259 370.973 266.972C373.804 273.07 375.22 281.401 375.22 291.964L374.567 321.858V370.537C374.567 375.764 375.002 379.521 375.874 381.808C376.527 383.442 377.562 384.64 378.977 385.402C380.066 386.055 382.353 386.491 385.838 386.709L396.456 387.689V397C387.526 396.238 379.685 395.857 372.933 395.857C366.399 395.857 357.687 396.238 346.797 397L347.614 368.25C325.398 385.021 312.221 394.495 308.082 396.673C303.944 398.742 298.717 399.777 292.401 399.777C279.223 399.777 268.932 396.292 261.527 389.322C254.231 382.244 250.582 372.878 250.582 361.226C250.582 353.712 251.835 346.851 254.339 340.643C256.953 334.436 260.057 329.536 263.651 325.942C267.244 322.239 270.893 319.517 274.595 317.774C280.911 314.834 291.148 311.676 305.305 308.3C319.571 304.924 333.674 302.419 347.614 300.786C347.723 290.44 346.47 282.381 343.857 276.609C341.243 270.838 336.832 266.1 330.625 262.398C324.418 258.695 316.849 256.844 307.919 256.844C301.494 256.844 295.831 257.715 290.93 259.457C286.139 261.2 283.198 262.67 282.109 263.868L279.169 269.749C276.229 276.283 274.051 281.401 272.635 285.104ZM347.614 310.75C333.456 313.146 321.368 315.814 311.349 318.754C301.33 321.695 294.252 324.744 290.114 327.902C287.609 329.753 285.431 332.53 283.58 336.233C280.748 341.678 279.332 347.722 279.332 354.365C279.332 362.424 281.565 368.74 286.03 373.314C290.495 377.779 296.702 380.011 304.652 380.011C311.948 380.011 319.136 377.942 326.214 373.804C333.402 369.557 340.535 363.241 347.614 354.855V310.75ZM451.669 167C456.787 167 461.089 168.797 464.574 172.391C468.168 175.984 469.964 180.34 469.964 185.459C469.964 190.468 468.168 194.77 464.574 198.364C460.98 201.957 456.678 203.754 451.669 203.754C446.551 203.754 442.195 201.957 438.601 198.364C435.007 194.77 433.21 190.468 433.21 185.459C433.21 180.34 435.007 175.984 438.601 172.391C442.195 168.797 446.551 167 451.669 167ZM411.811 262.561V253.25C432.938 250.854 450.689 246.28 465.064 239.528L468.658 242.142C467.786 265.338 467.351 283.089 467.351 295.395V325.125C467.895 353.439 468.222 368.74 468.331 371.027C468.44 376.472 469.039 380.447 470.128 382.952C470.672 383.932 471.38 384.803 472.251 385.565C473.123 386.219 474.429 386.763 476.172 387.199C476.825 387.308 482.869 387.471 494.304 387.689V397C477.751 396.238 464.519 395.857 454.609 395.857C445.897 395.857 431.631 396.238 411.811 397V387.689L427.33 387.526C429.616 387.417 431.359 387.036 432.557 386.382C433.864 385.62 434.844 384.694 435.497 383.605C436.695 381.427 437.457 377.561 437.784 372.007C437.784 370.591 438.111 354.964 438.764 325.125V296.375C438.764 280.149 438.22 270.511 437.131 267.462C436.477 265.828 435.279 264.63 433.537 263.868C431.903 262.997 424.661 262.561 411.811 262.561ZM509.496 397V387.689C521.802 387.471 528.445 387.253 529.425 387.036C531.276 386.709 532.637 386.219 533.508 385.565C534.489 384.803 535.251 383.768 535.795 382.462C536.884 379.957 537.538 376.036 537.756 370.7C538.409 341.624 538.736 326.432 538.736 325.125V305.686C538.736 296.974 538.572 287.608 538.246 277.589C538.028 271.164 537.538 267.353 536.776 266.155C536.122 264.957 534.87 264.086 533.018 263.541C531.276 262.888 524.197 262.616 511.783 262.724V253.413C533.781 250.364 549.844 246.389 559.972 241.489C562.15 240.4 563.62 239.855 564.382 239.855C565.144 239.855 565.743 240.127 566.179 240.672C566.615 241.216 566.832 242.033 566.832 243.122C566.832 243.884 566.778 244.756 566.669 245.736C566.124 252.379 565.798 262.67 565.689 276.609C570.589 270.947 575.109 265.338 579.247 259.784C583.385 254.23 586.38 250.636 588.231 249.003C591.499 246.171 595.256 243.939 599.503 242.305C603.75 240.563 608.16 239.692 612.734 239.692C617.308 239.692 621.828 240.672 626.293 242.632L627.273 244.919C625.639 259.403 624.714 272.144 624.496 283.143H617.145C614.64 277.916 611.7 274.105 608.324 271.709C605.057 269.313 600.919 268.115 595.909 268.115C587.524 268.115 580.391 271.6 574.51 278.57C568.629 285.43 565.689 295.776 565.689 309.607V326.432C565.689 333.619 565.961 346.742 566.506 365.8C566.615 372.552 566.887 376.853 567.322 378.705C567.758 380.556 568.303 381.917 568.956 382.788C569.718 383.551 570.916 384.204 572.55 384.749C575.817 385.729 584.638 386.709 599.013 387.689V397C579.846 396.238 563.511 395.857 550.007 395.857C536.068 395.857 522.564 396.238 509.496 397ZM639.361 321.858C639.361 297.464 647.093 277.589 662.557 262.234C678.13 246.77 698.059 239.038 722.344 239.038C745.213 239.038 763.835 246.226 778.21 260.601C792.585 274.976 799.773 293.544 799.773 316.304C799.773 332.204 796.07 346.742 788.665 359.919C781.259 373.096 770.805 383.442 757.301 390.956C743.797 398.361 728.932 402.064 712.706 402.064C700.073 402.064 689.347 399.94 680.526 395.693C671.813 391.446 664.735 386.11 659.29 379.685C653.845 373.259 649.706 366.671 646.875 359.919C641.865 348.049 639.361 335.362 639.361 321.858ZM670.234 309.77C670.234 323.165 672.467 336.777 676.932 350.608C681.397 364.438 687.822 374.566 696.207 380.991C704.702 387.308 713.904 390.466 723.814 390.466C736.446 390.466 747.01 385.456 755.504 375.438C763.999 365.419 768.246 350.009 768.246 329.209C768.246 311.893 765.687 296.974 760.568 284.45C755.559 271.818 749.133 262.942 741.293 257.824C733.452 252.597 724.794 249.983 715.32 249.983C701.925 249.983 691.035 254.829 682.649 264.521C674.373 274.214 670.234 289.296 670.234 309.77Z" fill="#FFD578"/>
<path d="M805.789 217.076C823.152 208.727 826.056 184.406 829.686 153.611C832.469 130.44 835.676 104.183 846.142 79.6198C838.64 58.9893 844.085 36.1203 844.388 34.8498C845.174 31.8248 848.018 29.9493 851.043 30.3123C857.758 31.1593 865.623 37.2093 872.702 45.4373C895.571 31.5828 921.646 41.5048 937.618 47.6153C942.156 49.3093 946.391 50.9428 948.569 51.2453C953.832 51.9108 961.637 51.3058 969.26 50.7008C983.961 49.6118 997.876 48.5228 1005.5 54.3308C1008.46 56.6298 1012.46 58.9893 1016.39 61.2883C1026.37 67.1568 1034.24 71.7548 1034.6 79.0148C1034.84 85.0648 1030.85 89.0578 1025.95 90.9938L1025.28 98.9193C1024.92 103.336 1022.86 107.268 1019.41 110.051C1016.57 112.35 1013 113.56 1009.37 113.56C1008.65 113.56 1007.92 113.5 1007.19 113.439C1005.98 113.258 1004.77 113.137 1003.56 113.016C995.638 124.269 986.442 127.717 977.488 130.984C973.495 132.436 969.441 133.888 965.267 136.127C956.918 140.604 949.234 143.447 943.971 145.141C942.337 168.797 937.981 211.268 926.728 226.211C923.764 230.083 920.376 237.283 916.383 245.632C902.71 274.309 879.901 322.285 828.053 332.631C827.629 332.691 827.266 332.752 826.843 332.752C823.999 332.752 821.519 330.755 820.914 327.851L819.402 304.221C818.169 284.968 810.499 266.688 797.624 252.321L783 236C781.548 232.975 802.764 218.528 805.789 217.076ZM903.012 82.7053C904.112 83.6829 905.534 84.2213 907.005 84.2178C908.699 84.2178 910.393 83.5523 911.543 82.1608C917.714 75.2638 931.447 77.5023 931.629 77.5023C932.409 77.648 933.209 77.6361 933.984 77.4673C934.759 77.2985 935.493 76.9762 936.141 76.5195C936.79 76.0627 937.34 75.4808 937.76 74.808C938.18 74.1351 938.461 73.385 938.586 72.6018C939.191 69.3348 937.013 66.1888 933.686 65.5838C932.899 65.4628 913.176 62.1353 902.528 74.1748C900.29 76.6553 900.532 80.4668 903.012 82.7053Z" fill="#FFD578"/>
</svg>
