<svg width="789" height="243" viewBox="0 0 789 243" fill="none" xmlns="http://www.w3.org/2000/svg">
<path d="M216.876 208.087L210.506 223.278C197.764 229.704 185.295 234.332 173.098 237.163C160.901 240.104 147.615 241.574 133.24 241.574C116.36 241.574 100.678 239.45 86.1946 235.203C71.7107 230.956 59.0237 224.912 48.1335 217.071C37.3523 209.121 28.5312 200.246 21.6705 190.445C14.8097 180.643 9.58239 170.026 5.98864 158.591C2.39489 147.047 0.598011 134.415 0.598011 120.693C0.598011 85.9536 12.6861 57.2036 36.8622 34.4432C61.1473 11.5739 94.2533 0.139214 136.18 0.139214C146.09 0.139214 155.238 0.738173 163.624 1.93609C172.118 3.0251 182.409 5.20313 194.497 8.47018C206.694 11.6283 214.154 13.4796 216.876 14.0242C214.481 20.0137 212.684 25.8944 211.486 31.6662C209.743 40.9228 208.545 51.6496 207.892 63.8466H197.601L197.437 44.571C196.348 33.8987 190.413 25.9489 179.632 20.7216C168.96 15.4943 153.278 12.8807 132.587 12.8807C117.123 13.0985 104 15.1132 93.2187 18.9247C82.4375 22.6274 72.9086 28.5625 64.6321 36.7301C56.4645 44.7888 49.767 55.08 44.5398 67.6037C39.3125 80.0185 36.6444 95.6458 36.5355 114.486C36.5355 147.483 46.6089 174.055 66.7557 194.202C86.9025 214.24 113.529 224.259 146.635 224.259C161.554 224.259 175.385 222.189 188.126 218.051C196.839 215.22 205.496 210.755 214.099 204.656L216.876 208.087ZM261.635 125.104L252.977 122.817C253.086 120.312 253.141 116.882 253.141 112.526C253.141 107.952 253.086 104.304 252.977 101.581C266.808 92.5421 278.134 86.4437 286.955 83.2855C293.706 80.9986 301.275 79.8551 309.66 79.8551C322.075 79.8551 332.53 82.1965 341.024 86.8793C349.518 91.562 355.835 98.2595 359.973 106.972C362.804 113.07 364.22 121.401 364.22 131.964L363.567 161.858V210.537C363.567 215.764 364.002 219.521 364.874 221.808C365.527 223.442 366.562 224.64 367.977 225.402C369.066 226.055 371.353 226.491 374.838 226.709L385.456 227.689V237C376.526 236.238 368.685 235.857 361.933 235.857C355.399 235.857 346.687 236.238 335.797 237L336.614 208.25C314.398 225.021 301.221 234.495 297.082 236.673C292.944 238.742 287.717 239.777 281.401 239.777C268.223 239.777 257.932 236.292 250.527 229.322C243.231 222.244 239.582 212.878 239.582 201.226C239.582 193.712 240.835 186.851 243.339 180.643C245.953 174.436 249.057 169.536 252.651 165.942C256.244 162.239 259.893 159.517 263.595 157.774C269.911 154.834 280.148 151.676 294.305 148.3C308.571 144.924 322.674 142.419 336.614 140.786C336.723 130.44 335.47 122.381 332.857 116.609C330.243 110.838 325.832 106.1 319.625 102.398C313.418 98.6951 305.849 96.8438 296.919 96.8438C290.494 96.8438 284.831 97.715 279.93 99.4574C275.139 101.2 272.198 102.67 271.109 103.868L268.169 109.749C265.229 116.283 263.051 121.401 261.635 125.104ZM336.614 150.75C322.456 153.146 310.368 155.814 300.349 158.754C290.33 161.695 283.252 164.744 279.114 167.902C276.609 169.753 274.431 172.53 272.58 176.233C269.748 181.678 268.332 187.722 268.332 194.365C268.332 202.424 270.565 208.74 275.03 213.314C279.495 217.779 285.702 220.011 293.652 220.011C300.948 220.011 308.136 217.942 315.214 213.804C322.402 209.557 329.535 203.241 336.614 194.855V150.75ZM440.669 7.00001C445.787 7.00001 450.089 8.79688 453.574 12.3906C457.168 15.9844 458.964 20.3404 458.964 25.4588C458.964 30.4683 457.168 34.7699 453.574 38.3636C449.98 41.9574 445.678 43.7543 440.669 43.7543C435.551 43.7543 431.195 41.9574 427.601 38.3636C424.007 34.7699 422.21 30.4683 422.21 25.4588C422.21 20.3404 424.007 15.9844 427.601 12.3906C431.195 8.79688 435.551 7.00001 440.669 7.00001ZM400.811 102.561V93.25C421.938 90.8542 439.689 86.2803 454.064 79.5284L457.658 82.1421C456.786 105.338 456.351 123.089 456.351 135.395V165.125C456.895 193.439 457.222 208.74 457.331 211.027C457.44 216.472 458.039 220.447 459.128 222.952C459.672 223.932 460.38 224.803 461.251 225.565C462.123 226.219 463.429 226.763 465.172 227.199C465.825 227.308 471.869 227.471 483.304 227.689V237C466.751 236.238 453.519 235.857 443.609 235.857C434.897 235.857 420.631 236.238 400.811 237V227.689L416.33 227.526C418.616 227.417 420.359 227.036 421.557 226.382C422.864 225.62 423.844 224.694 424.497 223.605C425.695 221.427 426.457 217.561 426.784 212.007C426.784 210.591 427.111 194.964 427.764 165.125V136.375C427.764 120.149 427.22 110.511 426.131 107.462C425.477 105.828 424.279 104.63 422.537 103.868C420.903 102.997 413.661 102.561 400.811 102.561ZM498.496 237V227.689C510.802 227.471 517.445 227.253 518.425 227.036C520.276 226.709 521.637 226.219 522.508 225.565C523.489 224.803 524.251 223.768 524.795 222.462C525.884 219.957 526.538 216.036 526.756 210.7C527.409 181.624 527.736 166.432 527.736 165.125V145.686C527.736 136.974 527.572 127.608 527.246 117.589C527.028 111.164 526.538 107.353 525.776 106.155C525.122 104.957 523.87 104.086 522.018 103.541C520.276 102.888 513.197 102.616 500.783 102.724V93.4134C522.781 90.3641 538.844 86.3892 548.972 81.4886C551.15 80.3996 552.62 79.8551 553.382 79.8551C554.144 79.8551 554.743 80.1274 555.179 80.6719C555.615 81.2164 555.832 82.0332 555.832 83.1222C555.832 83.8845 555.778 84.7557 555.669 85.7358C555.124 92.3788 554.798 102.67 554.689 116.609C559.589 110.947 564.109 105.338 568.247 99.7841C572.385 94.2301 575.38 90.6364 577.231 89.0028C580.499 86.1714 584.256 83.9389 588.503 82.3054C592.75 80.563 597.16 79.6918 601.734 79.6918C606.308 79.6918 610.828 80.6719 615.293 82.6321L616.273 84.919C614.639 99.4029 613.714 112.144 613.496 123.143H606.145C603.64 117.916 600.7 114.105 597.324 111.709C594.057 109.313 589.919 108.115 584.909 108.115C576.524 108.115 569.391 111.6 563.51 118.57C557.629 125.43 554.689 135.776 554.689 149.607V166.432C554.689 173.619 554.961 186.742 555.506 205.8C555.615 212.552 555.887 216.853 556.322 218.705C556.758 220.556 557.303 221.917 557.956 222.788C558.718 223.551 559.916 224.204 561.55 224.749C564.817 225.729 573.638 226.709 588.013 227.689V237C568.846 236.238 552.511 235.857 539.007 235.857C525.068 235.857 511.564 236.238 498.496 237ZM628.361 161.858C628.361 137.464 636.093 117.589 651.557 102.234C667.13 86.7704 687.059 79.0384 711.344 79.0384C734.213 79.0384 752.835 86.2259 767.21 100.601C781.585 114.976 788.773 133.544 788.773 156.304C788.773 172.204 785.07 186.742 777.665 199.919C770.259 213.096 759.805 223.442 746.301 230.956C732.797 238.361 717.932 242.064 701.706 242.064C689.073 242.064 678.347 239.94 669.526 235.693C660.813 231.446 653.735 226.11 648.29 219.685C642.845 213.259 638.706 206.671 635.875 199.919C630.865 188.049 628.361 175.362 628.361 161.858ZM659.234 149.77C659.234 163.165 661.467 176.777 665.932 190.608C670.397 204.438 676.822 214.566 685.207 220.991C693.702 227.308 702.904 230.466 712.814 230.466C725.446 230.466 736.01 225.456 744.504 215.438C752.999 205.419 757.246 190.009 757.246 169.209C757.246 151.893 754.687 136.974 749.568 124.45C744.559 111.818 738.133 102.942 730.293 97.8239C722.452 92.5966 713.794 89.983 704.32 89.983C690.925 89.983 680.035 94.8291 671.649 104.521C663.373 114.214 659.234 129.296 659.234 149.77Z" fill="black"/>
</svg>
